<mxfile host="app.diagrams.net" modified="2024-05-21T20:55:07.835Z" agent="Mozilla/5.0 (Windows NT 10.0; Win64; x64) AppleWebKit/537.36 (KHTML, like Gecko) Chrome/114.0.0.0 Safari/537.36" etag="gxZPK8GOSbpufAqzMxVW" version="24.3.1" type="device">
  <diagram name="Página-1" id="5FNPETWoeGt40ZQVILET">
    <mxGraphModel dx="1434" dy="764" grid="1" gridSize="10" guides="1" tooltips="1" connect="1" arrows="1" fold="1" page="1" pageScale="1" pageWidth="827" pageHeight="1169" math="0" shadow="0">
      <root>
        <mxCell id="0" />
        <mxCell id="1" parent="0" />
        <mxCell id="FeOMmpjp_mBAAMrXc4ME-1" value="Hoteles" style="swimlane;fontStyle=1;align=center;verticalAlign=top;childLayout=stackLayout;horizontal=1;startSize=26;horizontalStack=0;resizeParent=1;resizeParentMax=0;resizeLast=0;collapsible=1;marginBottom=0;whiteSpace=wrap;html=1;" vertex="1" parent="1">
          <mxGeometry x="330" y="350" width="160" height="170" as="geometry" />
        </mxCell>
        <mxCell id="FeOMmpjp_mBAAMrXc4ME-2" value="Nombre (String)&lt;div&gt;numero_habitaciones (Int)&lt;/div&gt;&lt;div&gt;numero_estrellas_hotel (int)&lt;/div&gt;&lt;div&gt;Reseñas (String)&lt;/div&gt;&lt;div&gt;ubicacion_hotel (String)&lt;/div&gt;" style="text;strokeColor=none;fillColor=none;align=left;verticalAlign=top;spacingLeft=4;spacingRight=4;overflow=hidden;rotatable=0;points=[[0,0.5],[1,0.5]];portConstraint=eastwest;whiteSpace=wrap;html=1;" vertex="1" parent="FeOMmpjp_mBAAMrXc4ME-1">
          <mxGeometry y="26" width="160" height="84" as="geometry" />
        </mxCell>
        <mxCell id="FeOMmpjp_mBAAMrXc4ME-3" value="" style="line;strokeWidth=1;fillColor=none;align=left;verticalAlign=middle;spacingTop=-1;spacingLeft=3;spacingRight=3;rotatable=0;labelPosition=right;points=[];portConstraint=eastwest;strokeColor=inherit;" vertex="1" parent="FeOMmpjp_mBAAMrXc4ME-1">
          <mxGeometry y="110" width="160" height="8" as="geometry" />
        </mxCell>
        <mxCell id="FeOMmpjp_mBAAMrXc4ME-4" value="ImprimirDatosHoteles&lt;div&gt;ModificarDatosHoteles&lt;/div&gt;&lt;div&gt;HotelesNull&lt;/div&gt;" style="text;strokeColor=none;fillColor=none;align=left;verticalAlign=top;spacingLeft=4;spacingRight=4;overflow=hidden;rotatable=0;points=[[0,0.5],[1,0.5]];portConstraint=eastwest;whiteSpace=wrap;html=1;" vertex="1" parent="FeOMmpjp_mBAAMrXc4ME-1">
          <mxGeometry y="118" width="160" height="52" as="geometry" />
        </mxCell>
      </root>
    </mxGraphModel>
  </diagram>
</mxfile>
